#define max_toggled_width 10
#define max_toggled_height 10
static unsigned char max_toggled_bits[] = {
   0x00, 0x00, 0x00, 0x00, 0x00, 0x00, 0xc0, 0x01, 0xe0, 0x03, 0xe0, 0x03,
   0xc0, 0x01, 0x00, 0x00, 0x00, 0x00, 0x00, 0x00 };
