#define bullet_width 7
#define bullet_height 7
static unsigned char bullet_bits[] = {
   0x00, 0x00, 0x1c, 0x3e, 0x1c, 0x00, 0x00 };
